<?xml version="1.0" encoding="utf-8"?>
<!-- Generator: Adobe Illustrator 24.0.1, SVG Export Plug-In . SVG Version: 6.00 Build 0)  -->
<svg version="1.1" id="_x31_px" xmlns="http://www.w3.org/2000/svg" xmlns:xlink="http://www.w3.org/1999/xlink" x="0px" y="0px"
	 viewBox="0 0 512 512" style="enable-background:new 0 0 512 512;" xml:space="preserve">
<style type="text/css">
	.st0{fill:#9C182F;}
</style>
<path class="st0" d="M256,256c-1.3,0-2.5-0.2-3.7-0.7L49.6,180.7c-4.2-1.5-7-5.5-7-10s2.8-8.5,7-10l138.7-51
	c5.5-2,11.7,0.8,13.7,6.3s-0.8,11.6-6.3,13.7l-111.5,41L256,234l171.8-63.3l-111.5-41c-5.5-2-8.4-8.2-6.3-13.7s8.2-8.3,13.7-6.3
	l138.7,51c4.2,1.6,7,5.6,7,10c0,4.5-2.8,8.5-7,10l-202.7,74.7C258.5,255.8,257.3,256,256,256z"/>
<path class="st0" d="M256,512c-1.3,0-2.5-0.2-3.7-0.7l-113.3-41.6c-5.5-2-8.4-8.1-6.3-13.7c2-5.5,8.2-8.4,13.7-6.3L256,490
	l109.6-40.3c5.5-2,11.6,0.8,13.7,6.3c2,5.5-0.8,11.6-6.3,13.7l-113.3,41.6C258.5,511.8,257.3,512,256,512z"/>
<path class="st0" d="M53.3,378.9c-5.9,0-10.7-4.8-10.7-10.7V170.7c0-5.9,4.8-10.7,10.7-10.7S64,164.8,64,170.7v197.5
	C64,374.1,59.2,378.9,53.3,378.9z"/>
<path class="st0" d="M458.7,378.9c-5.9,0-10.7-4.8-10.7-10.7V170.7c0-5.9,4.8-10.7,10.7-10.7c5.9,0,10.7,4.8,10.7,10.7v197.5
	C469.3,374.1,464.6,378.9,458.7,378.9z"/>
<path class="st0" d="M256,170.7c-5.9,0-10.7-4.8-10.7-10.7V74.7c0-5.9,4.8-10.7,10.7-10.7s10.7,4.8,10.7,10.7V160
	C266.7,165.9,261.9,170.7,256,170.7z"/>
<path class="st0" d="M446.7,457.4c-2.7,0-5.5-1-7.6-3.1l-52.1-52.1c-4.2-4.2-4.2-10.9,0-15.1c4.2-4.2,10.9-4.2,15.1,0l52.1,52.1
	c4.2,4.2,4.2,10.9,0,15.1C452.2,456.3,449.5,457.4,446.7,457.4z"/>
<path class="st0" d="M65.3,457.4c-2.7,0-5.5-1-7.6-3.1c-4.2-4.2-4.2-10.9,0-15.1l52.1-52.1c4.2-4.2,10.9-4.2,15.1,0
	c4.2,4.2,4.2,10.9,0,15.1l-52.1,52.1C70.7,456.3,68,457.4,65.3,457.4z"/>
<path class="st0" d="M256,512c-5.9,0-10.7-4.8-10.7-10.7v-256c0-5.9,4.8-10.7,10.7-10.7s10.7,4.8,10.7,10.7v256
	C266.7,507.2,261.9,512,256,512z"/>
<path class="st0" d="M256,85.3c-23.5,0-42.7-19.1-42.7-42.7S232.5,0,256,0s42.7,19.1,42.7,42.7S279.5,85.3,256,85.3z M256,21.3
	c-11.8,0-21.3,9.6-21.3,21.3S244.2,64,256,64c11.8,0,21.3-9.6,21.3-21.3S267.8,21.3,256,21.3z"/>
<path class="st0" d="M469.3,512c-23.5,0-42.7-19.1-42.7-42.7c0-23.5,19.1-42.7,42.7-42.7s42.7,19.1,42.7,42.7
	C512,492.9,492.9,512,469.3,512z M469.3,448c-11.8,0-21.3,9.6-21.3,21.3c0,11.8,9.6,21.3,21.3,21.3s21.3-9.6,21.3-21.3
	C490.7,457.6,481.1,448,469.3,448z"/>
<path class="st0" d="M42.7,512C19.1,512,0,492.9,0,469.3c0-23.5,19.1-42.7,42.7-42.7s42.7,19.1,42.7,42.7
	C85.3,492.9,66.2,512,42.7,512z M42.7,448c-11.8,0-21.3,9.6-21.3,21.3c0,11.8,9.6,21.3,21.3,21.3S64,481.1,64,469.3
	C64,457.6,54.4,448,42.7,448z"/>
</svg>
