<?xml version="1.0" encoding="utf-8"?>
<!-- Generator: Adobe Illustrator 24.0.1, SVG Export Plug-In . SVG Version: 6.00 Build 0)  -->
<svg version="1.1" id="Capa_1" xmlns="http://www.w3.org/2000/svg" xmlns:xlink="http://www.w3.org/1999/xlink" x="0px" y="0px"
	 viewBox="0 0 512 512" style="enable-background:new 0 0 512 512;" xml:space="preserve">
<style type="text/css">
	.st0{fill:#9C182F;}
</style>
<g>
	<path class="st0" d="M134.5,161.2h26.2v26.4h-44.1c-5.5,0-10,4.5-10,10s4.5,10,10,10h44.1V234h-26.2c-5.5,0-10,4.5-10,10
		s4.5,10,10,10h26.2v9.4c0,5.5,4.5,10,10,10h9.3v26.2c0,5.5,4.5,10,10,10s10-4.5,10-10v-26.2h26.4v44.1c0,5.5,4.5,10,10,10
		s10-4.5,10-10v-44.1h26.4v26.2c0,5.5,4.5,10,10,10s10-4.5,10-10v-26.2h9.3c5.5,0,10-4.5,10-10V254h26.2c5.5,0,10-4.5,10-10
		s-4.5-10-10-10h-26.2v-26.4h44.1c5.5,0,10-4.5,10-10s-4.5-10-10-10h-44.1v-26.4h26.2c5.5,0,10-4.5,10-10s-4.5-10-10-10h-26.2v-9.3
		c0-5.5-4.5-10-10-10h-9.3V95.6c0-5.5-4.5-10-10-10s-10,4.5-10,10v26.2h-26.4V77.7c0-5.5-4.5-10-10-10s-10,4.5-10,10v44.1H200V95.6
		c0-5.5-4.5-10-10-10s-10,4.5-10,10v26.2h-9.3c-5.5,0-10,4.5-10,10v9.3h-26.2c-5.5,0-10,4.5-10,10S129,161.2,134.5,161.2
		L134.5,161.2z M180.8,141.9h111.5v111.5H180.8V141.9z"/>
	<path class="st0" d="M479.1,199.3c17.6,0,31.9-14.3,31.9-31.9s-14.3-31.9-31.9-31.9c-14.1,0-26,9.2-30.2,21.9h-28.6
		c-5.2-17.7-13-34.6-23.2-50.2h82.1c5.3,0,9.7-4.2,10-9.5c0-0.2,0-0.3,0-0.5V62.1c12.7-4.2,21.9-16.2,21.9-30.3
		C511,14.3,496.7,0,479.1,0s-31.9,14.3-31.9,31.9c0,14.1,9.2,26.1,21.9,30.3v25.1H382c-1.8-2.1-3.7-4.2-5.6-6.3
		c-35.1-37.7-82.7-59.6-134.2-61.5c-34.8-1.3-69.2,6.8-99.6,23.5c-4.8,2.7-6.6,8.7-4,13.6c2.7,4.8,8.7,6.6,13.6,4
		c27.2-14.9,58.1-22.2,89.3-21c95.2,3.4,169.9,83.7,166.5,179c0,0.1,0,0.3,0,0.4c0.1,42.3-15.2,83-43.2,114.8
		c-1.6,1.8-2.5,4.2-2.5,6.6V492h-50.8v-84c12.7-4.2,21.9-16.2,21.9-30.2c0-17.6-14.3-31.9-31.9-31.9s-31.9,14.3-31.9,31.9
		c0,14.1,9.2,26,21.9,30.2v84h-80.2v-43.9c12.7-4.2,21.9-16.2,21.9-30.2c0-17.6-14.3-31.9-31.9-31.9s-31.9,14.3-31.9,31.9
		c0,14.1,9.2,26,21.9,30.2V492h-42.4l-9.6-40.4c-3.4-14.4-12.3-21.4-27.1-21.4H82.8c-7.3,0-11.8-6.6-12.3-13.2l-10-110
		c-0.5-5.1-4.8-9.1-10-9.1H22.7c0.2-0.5,0.4-1,0.7-1.6l38.2-86.8c0.5-1.2,0.8-2.4,0.8-3.7c1.2-31.4,10.8-61.8,27.9-88
		c3-4.6,1.7-10.8-2.9-13.8s-10.8-1.7-13.8,2.9c-18.7,28.7-29.4,61.9-31.1,96.3L5,288.3c-2.8,6.3-6.5,14.9-1.7,22.3
		c4.8,7.3,14.3,7.3,17.8,7.3h20.2l9.2,100.8c1.6,17.9,15.5,31.4,32.3,31.4h29.3c6,0,6.5,1,7.7,6l10,42.3c1.9,8.2,8.1,13.5,15.6,13.5
		h221c8.8,0,15.9-7.1,15.9-15.8v-152c23.4-27.6,38.4-61,43.6-96.5h43.2v25.1c-12.7,4.2-21.9,16.2-21.9,30.3
		c0,17.6,14.3,31.9,31.9,31.9S511,320.6,511,303c0-14.1-9.2-26.1-21.9-30.3v-35.1c0-0.3,0-0.5,0-0.7c-0.4-5.2-4.7-9.3-10-9.3h-51.3
		c0.1-2.8,0.2-5.7,0.2-8.5c0.5-14.1-0.5-28.1-3-41.7h23.9C453.1,190.1,465.1,199.3,479.1,199.3L479.1,199.3z M479.1,155.6
		c6.6,0,11.9,5.3,11.9,11.9c0,6.5-5.3,11.9-11.9,11.9c-6.5,0-11.9-5.3-11.9-11.9C467.3,160.9,472.6,155.6,479.1,155.6z M467.3,31.8
		c0-6.5,5.3-11.9,11.9-11.9s11.9,5.3,11.9,11.9c0,6.5-5.3,11.9-11.9,11.9C472.6,43.7,467.3,38.4,467.3,31.8z M201.2,429.7
		c-6.5,0-11.9-5.3-11.9-11.9c0-6.5,5.3-11.9,11.9-11.9c6.6,0,11.9,5.3,11.9,11.9C213.1,424.4,207.8,429.7,201.2,429.7z M301.5,389.6
		c-6.6,0-11.9-5.3-11.9-11.9c0-6.5,5.3-11.9,11.9-11.9c6.5,0,11.9,5.3,11.9,11.9C313.3,384.3,308,389.6,301.5,389.6z M479.1,291.1
		c6.6,0,11.9,5.3,11.9,11.9c0,6.5-5.3,11.9-11.9,11.9c-6.5,0-11.9-5.3-11.9-11.9S472.6,291.1,479.1,291.1z"/>
	<path class="st0" d="M110.7,88.2c2.6,0,5.1-1,7.1-2.9l0,0c3.9-3.9,3.9-10.2,0-14.1s-10.3-3.9-14.2,0c-3.9,3.9-3.9,10.2,0,14.1
		C105.6,87.2,108.2,88.2,110.7,88.2z"/>
</g>
</svg>
