<?xml version="1.0" encoding="utf-8"?>
<!-- Generator: Adobe Illustrator 24.0.1, SVG Export Plug-In . SVG Version: 6.00 Build 0)  -->
<svg version="1.1" id="Layer_1" xmlns="http://www.w3.org/2000/svg" xmlns:xlink="http://www.w3.org/1999/xlink" x="0px" y="0px"
	 viewBox="0 0 512 512" style="enable-background:new 0 0 512 512;" xml:space="preserve">
<style type="text/css">
	.st0{fill:#9C182F;}
</style>
<g id="cpu_chip">
	<path class="st0" d="M368,280c13.2,0,24-10.8,24-24v-16c0-4.4,3.6-8,8-8h72c13.2,0,24-10.8,24-24V104c0-13.2-10.8-24-24-24
		c-4.4,0-8-3.6-8-8v-9.4c12.5-4.4,19-18.1,14.6-30.6s-18.1-19-30.6-14.6s-19,18.1-14.6,30.6c2.4,6.8,7.8,12.2,14.6,14.6V72
		c0,13.2,10.8,24,24,24c4.4,0,8,3.6,8,8v104c0,4.4-3.6,8-8,8h-72c-13.2,0-24,10.8-24,24v16c0,4.4-3.6,8-8,8h-40v-52l28.8-21.6
		c2-1.5,3.2-3.9,3.2-6.4v-60c0-2.2,1.8-4,4-4h8c11,0,20-9,20-20V78.6c12.5-4.4,19-18.1,14.6-30.6s-18.1-19-30.6-14.6
		s-19,18.1-14.6,30.6c2.4,6.8,7.8,12.2,14.6,14.6V100c0,2.2-1.8,4-4,4h-8c-11,0-20,9-20,20v56l-28.8,21.6c-2,1.5-3.2,3.9-3.2,6.4
		v112h-16V156c0-2.2,1.8-4,4-4c11,0,20-9,20-20V62.6c12.5-4.4,19-18.1,14.6-30.6s-18.1-19-30.6-14.6s-19,18.1-14.6,30.6
		c2.4,6.8,7.8,12.2,14.6,14.6V132c0,2.2-1.8,4-4,4c-11,0-20,9-20,20v164h-16V110.6c12.5-4.4,19-18.1,14.6-30.6s-18.1-19-30.6-14.6
		c-12.5,4.4-19,18.1-14.6,30.6c2.4,6.8,7.8,12.2,14.6,14.6V320h-16V156c0-11-9-20-20-20c-2.2,0-4-1.8-4-4V62.6
		c12.5-4.4,19-18.1,14.6-30.6c-4.4-12.5-18.1-19-30.6-14.6s-19,18.1-14.6,30.6c2.4,6.8,7.8,12.2,14.6,14.6V132c0,11,9,20,20,20
		c2.2,0,4,1.8,4,4v164h-16V208c0-2.5-1.2-4.9-3.2-6.4L168,180v-56c0-11-9-20-20-20h-8c-2.2,0-4-1.8-4-4V78.6
		c12.5-4.4,19-18.1,14.6-30.6c-4.4-12.5-18.1-19-30.6-14.6s-19,18.1-14.6,30.6c2.4,6.8,7.8,12.2,14.6,14.6V100c0,11,9,20,20,20h8
		c2.2,0,4,1.8,4,4v60c0,2.5,1.2,4.9,3.2,6.4L184,212v52h-40c-4.4,0-8-3.6-8-8v-16c0-13.2-10.8-24-24-24H40c-4.4,0-8-3.6-8-8V104
		c0-4.4,3.6-8,8-8c13.2,0,24-10.8,24-24v-9.4c12.5-4.4,19-18.1,14.6-30.6c-4.4-12.5-18.1-19-30.6-14.6S29,35.4,33.4,47.9
		c2.4,6.8,7.8,12.2,14.6,14.6V72c0,4.4-3.6,8-8,8c-13.2,0-24,10.8-24,24v104c0,13.2,10.8,24,24,24h72c4.4,0,8,3.6,8,8v16
		c0,13.2,10.8,24,24,24h40v40h-8c-4.4,0-8,3.6-8,8v8h-40v16h40v16H16v16h152v16h-40v16h40v16h-16v16h16v16h-16v16h16v8
		c0,4.4,3.6,8,8,8h160c4.4,0,8-3.6,8-8v-8h16v-16h-16v-16h16v-16h-16v-16h40v-16h-40v-16h152v-16H344v-16h40v-16h-40v-8
		c0-4.4-3.6-8-8-8h-8v-40H368z M456,48c-4.4,0-8-3.6-8-8s3.6-8,8-8s8,3.6,8,8S460.4,48,456,48z M384,48c4.4,0,8,3.6,8,8s-3.6,8-8,8
		s-8-3.6-8-8S379.6,48,384,48z M312,32c4.4,0,8,3.6,8,8s-3.6,8-8,8s-8-3.6-8-8S307.6,32,312,32z M200,48c-4.4,0-8-3.6-8-8s3.6-8,8-8
		s8,3.6,8,8S204.4,48,200,48z M128,64c-4.4,0-8-3.6-8-8s3.6-8,8-8c4.4,0,8,3.6,8,8S132.4,64,128,64z M56,32c4.4,0,8,3.6,8,8
		s-3.6,8-8,8s-8-3.6-8-8S51.6,32,56,32z M256,80c4.4,0,8,3.6,8,8s-3.6,8-8,8s-8-3.6-8-8S251.6,80,256,80z M328,480H184V336h144V480z
		"/>
	<path class="st0" d="M440,304v24c0,4.4-3.6,8-8,8h-32v16h32c13.3,0,24-10.7,24-24v-24c0-4.4,3.6-8,8-8h32v-16h-32
		C450.7,280,440,290.7,440,304z"/>
	<path class="st0" d="M456,448v-24c0-13.3-10.7-24-24-24h-32v16h32c4.4,0,8,3.6,8,8v24c0,13.3,10.7,24,24,24h32v-16h-32
		C459.6,456,456,452.4,456,448z"/>
	<path class="st0" d="M56,304v24c0,13.3,10.7,24,24,24h32v-16H80c-4.4,0-8-3.6-8-8v-24c0-13.3-10.7-24-24-24H16v16h32
		C52.4,296,56,299.6,56,304z"/>
	<path class="st0" d="M56,424v24c0,4.4-3.6,8-8,8H16v16h32c13.3,0,24-10.7,24-24v-24c0-4.4,3.6-8,8-8h32v-16H80
		C66.7,400,56,410.7,56,424z"/>
	<path class="st0" d="M280,398.5V464h16v-65.5c12.5-4.4,19-18.1,14.7-30.5c-4.4-12.5-18.1-19-30.5-14.7c-6.9,2.4-12.2,7.8-14.7,14.7
		H232v16h33.5C267.9,390.8,273.2,396.1,280,398.5z M288,368c4.4,0,8,3.6,8,8s-3.6,8-8,8s-8-3.6-8-8S283.6,368,288,368z"/>
	<rect x="200" y="368" class="st0" width="16" height="16"/>
</g>
</svg>
