<?xml version="1.0" encoding="utf-8"?>
<!-- Generator: Adobe Illustrator 24.0.1, SVG Export Plug-In . SVG Version: 6.00 Build 0)  -->
<svg version="1.1" id="Layer_5" xmlns="http://www.w3.org/2000/svg" xmlns:xlink="http://www.w3.org/1999/xlink" x="0px" y="0px"
	 viewBox="0 0 512 512" style="enable-background:new 0 0 512 512;" xml:space="preserve">
<style type="text/css">
	.st0{fill:#9C182F;}
</style>
<g>
	<path class="st0" d="M296,316.3v-57.1c21.5,13.4,46.5,20.8,72,20.8c75,0,136-61,136-136S443,8,368,8
		c-68.7,0-125.6,51.3-134.6,117.6c-14.7-9.5-31.4-16.1-49.4-19.3V64c0-13.2-10.8-24-24-24H64c-13.2,0-24,10.8-24,24v64
		c0,10.9,7.4,20.1,17.4,23C36.1,175.5,24,207.1,24,240v76.3c-9.8,8.8-16,21.5-16,35.7c0,26.5,21.5,48,48,48v64c0,22.1,17.9,40,40,40
		h128c22.1,0,40-17.9,40-40v-64c26.5,0,48-21.5,48-48C312,337.8,305.8,325.1,296,316.3z M368,24c17.9,0,34,19.1,44.4,48h-88.7
		C334,43.1,350.1,24,368,24L368,24z M417.3,88c3.7,14.6,6,30.9,6.5,48H312.2c0.6-17.1,2.8-33.4,6.5-48H417.3z M487.6,136h-47.8
		c-0.5-17.1-2.6-33.3-6-48H474C481.7,102.5,486.4,118.8,487.6,136L487.6,136z M368,264c-17.9,0-34-19.1-44.4-48h88.7
		C402,244.9,385.9,264,368,264L368,264z M293.8,216h12.9c5.3,16.3,12.3,30.3,20.7,41c-11.2-4-21.7-9.8-31.4-17.1
		C296,231.7,295.2,223.8,293.8,216L293.8,216z M318.7,200c-3.7-14.6-6-30.9-6.5-48h111.6c-0.6,17.1-2.8,33.4-6.5,48H318.7z
		 M439.8,152h47.8c-1.1,17.2-5.9,33.5-13.5,48h-40.3C437.2,185.3,439.3,169.1,439.8,152L439.8,152z M296.2,136h-47.8
		c1.1-17.2,5.9-33.5,13.5-48h40.3C298.8,102.7,296.7,118.9,296.2,136z M296.2,152c0.5,17.1,2.6,33.3,6,48h-12.3
		c-5.5-17.8-14.5-34.1-26.4-48H296.2z M408.8,256.7c8.3-10.6,15.3-24.5,20.5-40.7h34.5C449.9,234.4,430.9,248.7,408.8,256.7z
		 M463.8,72h-34.5c-5.3-16.2-12.2-30.1-20.5-40.7C430.9,39.3,449.9,53.6,463.8,72z M327.2,31.3C318.9,41.9,312,55.8,306.7,72h-34.5
		C286.1,53.6,305.1,39.3,327.2,31.3z M56,64c0-4.4,3.6-8,8-8h96c4.4,0,8,3.6,8,8v64c0,4.4-3.6,8-8,8h-56v30.1c0,1.8-2.8,2.4-3.6,0.8
		l-15.5-31H64c-4.4,0-8-3.6-8-8V64z M40,240c0-32.3,13.2-63.2,36.2-85.7l9.9,19.8c3,6.1,9.2,9.9,16,9.9c9.9,0,17.9-8,17.9-17.9V152
		h40c13.2,0,24-10.8,24-24v-5.5c55.3,11.2,96,60.2,96,117.5v66.8c-5-1.8-10.4-2.8-16-2.8v-64c0-22.1-17.9-40-40-40H96
		c-22.1,0-40,17.9-40,40v64c-5.6,0-11,1-16,2.8V240z M136,336c0-13.2,10.8-24,24-24s24,10.8,24,24s-10.8,24-24,24S136,349.2,136,336
		z M160,376c5.1,0,9.9,0.7,14.6,2L160,395.5L145.4,378C150.1,376.7,154.9,376,160,376z M130.2,384.7l29.8,35.8l29.8-35.8
		c15.7,9.9,26.2,27.4,26.2,47.3v8H104v-8C104,412.1,114.5,394.6,130.2,384.7L130.2,384.7z M187,365.3c7.9-7.3,13-17.7,13-29.3
		c0-22.1-17.9-40-40-40s-40,17.9-40,40c0,11.6,5.1,22,13,29.3C106.6,376,88,401.9,88,432v8H72V280h176v160h-16v-8
		C232,401.9,213.4,376,187,365.3L187,365.3z M248,264H72v-24c0-13.2,10.8-24,24-24h128c13.2,0,24,10.8,24,24V264z M24,352
		c0-17.6,14.4-32,32-32v64C38.4,384,24,369.6,24,352z M224,488H96c-13.2,0-24-10.8-24-24v-8h176v8C248,477.2,237.2,488,224,488z
		 M264,384v-64c17.6,0,32,14.4,32,32S281.6,384,264,384z"/>
	<path class="st0" d="M136,232h48v16h-48V232z"/>
	<path class="st0" d="M72,88h16v16H72V88z"/>
	<path class="st0" d="M104,88h16v16h-16V88z"/>
	<path class="st0" d="M136,88h16v16h-16V88z"/>
	<path class="st0" d="M456,488h-16V328h-48v160h-16V360h-48v144h176V392h-48V488z M360,488h-16V376h16V488z M408,344h16v144h-16V344
		z M472,408h16v80h-16V408z"/>
</g>
</svg>
