<svg xmlns="http://www.w3.org/2000/svg" viewBox="0 0 62.34 62.34"><defs><style>.cls-1{fill:#9c182f;}.cls-2{fill:#ff595a;}.cls-3{fill:#f6cdd7;}.cls-4{fill:#831618;}.cls-5{fill:#e03937;}</style></defs><title>Discovery_daemon_icon</title><g id="Layer_2" data-name="Layer 2"><g id="Layer_1-2" data-name="Layer 1"><rect class="cls-1" width="62.34" height="62.34" rx="8.53"/><path class="cls-2" d="M32.8,20.8v5.5a1,1,0,0,0,.09.42,13.06,13.06,0,0,1,1,5.11v.09c0,6.93-5.06,12.3-13,12.3H13.61V19.44H21a15,15,0,0,1,4.52.68.21.21,0,0,0,.27-.19v-3a.21.21,0,0,0-.17-.21A19.05,19.05,0,0,0,21,16.18H10.08V47.49H21c9.84,0,16.64-6.85,16.64-15.66v-.09a15.08,15.08,0,0,0-4.59-11A.12.12,0,0,0,32.8,20.8Z"/><path class="cls-3" d="M38.43,16.18H27.56v24a.29.29,0,0,0,.46.23,18,18,0,0,0,2.82-2.83,1.14,1.14,0,0,0,.26-.75V19.44h7.34c7.92,0,13,5.46,13,12.39v.09c0,6.93-5,12.3-13,12.3H34.29a.88.88,0,0,0-.64.28,11.22,11.22,0,0,1-4.1,2.71.15.15,0,0,0,.06.28h8.82c9.84,0,16.64-6.85,16.64-15.66v-.09C55.07,22.93,48.27,16.18,38.43,16.18Z"/><path class="cls-4" d="M15.72,20.65a.12.12,0,0,0-.2.08v5.51a1.06,1.06,0,0,0,.09.42,13,13,0,0,1,1,5.11v.09a12.68,12.68,0,0,1-1.21,5.47h0v5.79a15.23,15.23,0,0,0,4.87-11.35v-.09A15.06,15.06,0,0,0,15.72,20.65Z"/><path class="cls-4" d="M0,44.16v3.26H3.67a19.69,19.69,0,0,0,4.69-.56V43.43a15.17,15.17,0,0,1-4.69.73Z"/><path class="cls-4" d="M8.29,16.66a19.62,19.62,0,0,0-4.62-.55H0v3.27H3.67a14.77,14.77,0,0,1,4.52.68.21.21,0,0,0,.27-.2v-3A.22.22,0,0,0,8.29,16.66Z"/><path class="cls-5" d="M62.34,43a14.57,14.57,0,0,1-6,1.21H52.24a.88.88,0,0,0-.64.28,11.22,11.22,0,0,1-4.1,2.71.15.15,0,0,0,.06.28h8.82a19,19,0,0,0,6-.93Z"/><path class="cls-5" d="M45.51,23.54V40.17a.28.28,0,0,0,.45.24,17.07,17.07,0,0,0,2.82-2.82,1.21,1.21,0,0,0,.27-.77V27h0a14,14,0,0,0-3.54-3.46Z"/><path class="cls-5" d="M56.38,16.18H47.16a.09.09,0,0,0,0,.18,11.94,11.94,0,0,1,4.41,2.86.75.75,0,0,0,.53.22h4.32a14.36,14.36,0,0,1,5.95,1.23h0V17.11h0A18.88,18.88,0,0,0,56.38,16.18Z"/></g></g></svg>