<svg xmlns="http://www.w3.org/2000/svg" viewBox="0 0 151.91 51.78"><defs><style>.cls-1{fill:#fff;}.cls-2{fill:#d35050;}</style></defs><title>Discovery_daemon_logotype</title><g id="Layer_2" data-name="Layer 2"><g id="Layer_1-2" data-name="Layer 1"><path class="cls-1" d="M0,.48H7.81c7.07,0,12,4.86,12,11.19v.06c0,6.34-4.89,11.26-12,11.26H0ZM7.81,20.64c5.69,0,9.32-3.86,9.32-8.84v-.07c0-5-3.63-8.9-9.32-8.9H2.54V20.64Z"/><path class="cls-1" d="M24.79,0h2.83V2.73H24.79ZM25,6.37h2.47V23H25Z"/><path class="cls-1" d="M31.8,20.86l1.25-1.76a9.71,9.71,0,0,0,5.76,2.12c2,0,3.44-1,3.44-2.64v-.06c0-1.67-2-2.32-4.15-2.93-2.61-.74-5.5-1.64-5.5-4.69v-.07C32.6,8,35,6.08,38.26,6.08a11.35,11.35,0,0,1,6,1.83L43.11,9.77a9.43,9.43,0,0,0-4.92-1.6c-2,0-3.21,1-3.21,2.41v.06c0,1.58,2.06,2.19,4.28,2.86,2.57.77,5.33,1.77,5.33,4.76v.06c0,3.16-2.6,5-5.91,5A11.43,11.43,0,0,1,31.8,20.86Z"/><path class="cls-1" d="M48.16,14.76v-.07A8.66,8.66,0,0,1,63.34,9L61.7,10.71A6.7,6.7,0,0,0,56.65,8.2a6.13,6.13,0,0,0-5.95,6.43v.06a6.21,6.21,0,0,0,6.11,6.46,6.88,6.88,0,0,0,5.08-2.47l1.57,1.48a8.6,8.6,0,0,1-15.3-5.4Z"/><path class="cls-1" d="M66,14.76v-.07a8.67,8.67,0,0,1,17.33-.06v.06a8.64,8.64,0,0,1-8.72,8.68A8.51,8.51,0,0,1,66,14.76Zm14.79,0v-.07A6.29,6.29,0,0,0,74.65,8.2a6.13,6.13,0,0,0-6.07,6.43v.06a6.23,6.23,0,0,0,6.14,6.46A6.13,6.13,0,0,0,80.83,14.76Z"/><path class="cls-1" d="M85.23,6.37H88l5.6,13.79L99.18,6.37h2.67L94.62,23.11H92.43Z"/><path class="cls-1" d="M112.11,21.22a6.87,6.87,0,0,0,5.24-2.35l1.54,1.38a8.55,8.55,0,0,1-6.84,3.12c-4.57,0-8.3-3.5-8.3-8.68,0-4.82,3.38-8.68,8-8.68,4.92,0,7.75,3.92,7.75,8.81,0,.23,0,.48,0,.87H106.26A5.81,5.81,0,0,0,112.11,21.22ZM117,13.69c-.29-3-2-5.59-5.3-5.59-2.86,0-5,2.38-5.4,5.59Z"/><path class="cls-1" d="M123.81,6.37h2.48v4.34c1.22-2.77,3.63-4.76,6.78-4.63V8.74h-.19c-3.63,0-6.59,2.61-6.59,7.62V23h-2.48Z"/><path class="cls-1" d="M135.87,27.39l.84-2a5.16,5.16,0,0,0,2.6.61c1.48,0,2.41-.77,3.41-3.12L135.16,6.37h2.74l6,13.85,5.34-13.85h2.63l-7,17.16c-1.42,3.44-3,4.7-5.53,4.7A7.49,7.49,0,0,1,135.87,27.39Z"/><path class="cls-2" d="M0,28.89H7.81c7.07,0,12,4.86,12,11.19v.07c0,6.33-4.89,11.25-12,11.25H0ZM7.81,49.05c5.69,0,9.32-3.86,9.32-8.84v-.06c0-5-3.63-8.91-9.32-8.91H2.54V49.05Z"/><path class="cls-2" d="M23.47,46.58v-.07c0-3.57,2.89-5.43,7.11-5.43a17.23,17.23,0,0,1,5.07.71v-.52c0-3-1.8-4.5-4.91-4.5a11.53,11.53,0,0,0-5,1.19l-.74-2a13.55,13.55,0,0,1,6-1.42,7.37,7.37,0,0,1,5.37,1.83,6.58,6.58,0,0,1,1.74,4.89V51.4H35.65V48.92a7.26,7.26,0,0,1-6,2.83C26.56,51.75,23.47,50,23.47,46.58Zm12.22-1.29V43.75A16.86,16.86,0,0,0,30.83,43C27.75,43,26,44.39,26,46.38v.07c0,2.09,1.93,3.31,4.18,3.31C33.21,49.76,35.69,47.93,35.69,45.29Z"/><path class="cls-2" d="M50.67,49.63a6.87,6.87,0,0,0,5.24-2.35l1.54,1.39a8.58,8.58,0,0,1-6.85,3.11c-4.56,0-8.29-3.5-8.29-8.68,0-4.82,3.38-8.68,8-8.68,4.92,0,7.75,3.93,7.75,8.81,0,.23,0,.48,0,.87H44.82A5.81,5.81,0,0,0,50.67,49.63Zm4.85-7.52c-.29-3-2-5.6-5.3-5.6-2.86,0-5,2.38-5.4,5.6Z"/><path class="cls-2" d="M62.37,34.78h2.48v2.79a6.08,6.08,0,0,1,5.37-3.15,5.64,5.64,0,0,1,5.33,3.32,6.62,6.62,0,0,1,5.85-3.32c3.83,0,6.18,2.58,6.18,6.69V51.4H85.1V41.69c0-3.22-1.61-5-4.31-5-2.5,0-4.59,1.87-4.59,5.15V51.4H73.75V41.63c0-3.12-1.64-5-4.27-5s-4.63,2.19-4.63,5.24V51.4H62.37Z"/><path class="cls-2" d="M91.92,43.17V43.1A8.67,8.67,0,0,1,109.25,43v.06a8.63,8.63,0,0,1-8.71,8.68A8.51,8.51,0,0,1,91.92,43.17Zm14.79,0V43.1a6.29,6.29,0,0,0-6.17-6.49A6.13,6.13,0,0,0,94.46,43v.06a6.24,6.24,0,0,0,6.14,6.47A6.14,6.14,0,0,0,106.71,43.17Z"/><path class="cls-2" d="M113.72,34.78h2.47v2.89a6.31,6.31,0,0,1,5.69-3.25c4,0,6.37,2.7,6.37,6.66V51.4h-2.48V41.69c0-3.09-1.67-5-4.59-5a4.9,4.9,0,0,0-5,5.21V51.4h-2.47Z"/></g></g></svg>