<svg xmlns="http://www.w3.org/2000/svg" viewBox="0 0 221.91 62.34"><defs><style>.cls-1{fill:#9c182f;}.cls-2{fill:#831618;}.cls-3{fill:#d35050;}.cls-4{fill:#ff595a;}.cls-5{fill:#f6cdd7;}.cls-6{fill:#e03937;}</style></defs><title>Asset 3</title><g id="Layer_2" data-name="Layer 2"><g id="Layer_1-2" data-name="Layer 1"><rect class="cls-1" width="62.34" height="62.34" rx="8.53"/><path class="cls-2" d="M70,6.12h7.81c7.07,0,12,4.86,12,11.19v.06c0,6.34-4.89,11.26-12,11.26H70Zm7.81,20.16c5.69,0,9.32-3.86,9.32-8.84v-.07c0-5-3.63-8.9-9.32-8.9H72.54V26.28Z"/><path class="cls-2" d="M94.79,5.64h2.83V8.37H94.79ZM95,12h2.47V28.63H95Z"/><path class="cls-2" d="M101.8,26.51l1.25-1.77a9.7,9.7,0,0,0,5.75,2.12c2,0,3.44-1,3.44-2.64v-.06c0-1.67-2-2.32-4.14-2.93-2.61-.74-5.5-1.64-5.5-4.69v-.07c0-2.86,2.38-4.75,5.66-4.75a11.35,11.35,0,0,1,6,1.83l-1.13,1.86a9.43,9.43,0,0,0-4.92-1.6c-2,0-3.21,1-3.21,2.41v.06c0,1.58,2.06,2.19,4.28,2.86,2.57.77,5.33,1.77,5.33,4.76V24c0,3.15-2.6,5-5.91,5A11.42,11.42,0,0,1,101.8,26.51Z"/><path class="cls-2" d="M118.16,20.4v-.07a8.66,8.66,0,0,1,15.18-5.72l-1.64,1.74a6.7,6.7,0,0,0-5-2.51,6.13,6.13,0,0,0-6,6.43v.06a6.21,6.21,0,0,0,6.11,6.46,6.88,6.88,0,0,0,5.08-2.47l1.57,1.48a8.6,8.6,0,0,1-15.3-5.4Z"/><path class="cls-2" d="M136,20.4v-.07a8.66,8.66,0,0,1,17.32-.06v.06A8.62,8.62,0,0,1,144.65,29,8.51,8.51,0,0,1,136,20.4Zm14.78,0v-.07a6.28,6.28,0,0,0-6.17-6.49,6.13,6.13,0,0,0-6.07,6.43v.06a6.23,6.23,0,0,0,6.14,6.46A6.12,6.12,0,0,0,150.82,20.4Z"/><path class="cls-2" d="M155.23,12H158l5.6,13.79L169.18,12h2.67l-7.23,16.75h-2.19Z"/><path class="cls-2" d="M182.11,26.86a6.87,6.87,0,0,0,5.24-2.35l1.54,1.38A8.57,8.57,0,0,1,182,29c-4.56,0-8.29-3.5-8.29-8.68,0-4.82,3.38-8.68,8-8.68,4.92,0,7.75,3.92,7.75,8.81,0,.23,0,.48,0,.87H176.26A5.81,5.81,0,0,0,182.11,26.86ZM187,19.34c-.29-3-2-5.6-5.3-5.6-2.86,0-5,2.38-5.4,5.6Z"/><path class="cls-2" d="M193.81,12h2.48v4.34c1.22-2.77,3.63-4.76,6.78-4.63v2.67h-.19c-3.63,0-6.59,2.6-6.59,7.61v6.63h-2.48Z"/><path class="cls-2" d="M205.87,33l.84-2a5.16,5.16,0,0,0,2.6.61c1.48,0,2.41-.77,3.41-3.12L205.16,12h2.73l6.05,13.85L219.28,12h2.63l-7,17.16c-1.42,3.44-3,4.7-5.53,4.7A7.49,7.49,0,0,1,205.87,33Z"/><path class="cls-3" d="M70,34.54h7.81c7.07,0,12,4.85,12,11.18v.07c0,6.33-4.89,11.25-12,11.25H70Zm7.81,20.15c5.69,0,9.32-3.86,9.32-8.84v-.06c0-5-3.63-8.91-9.32-8.91H72.54V54.69Z"/><path class="cls-3" d="M93.47,52.22v-.07c0-3.57,2.89-5.43,7.1-5.43a17.25,17.25,0,0,1,5.08.71v-.52c0-2.95-1.8-4.5-4.91-4.5a11.5,11.5,0,0,0-5,1.19l-.74-2a13.55,13.55,0,0,1,6-1.42A7.37,7.37,0,0,1,106.36,42a6.58,6.58,0,0,1,1.74,4.89V57h-2.45V54.56a7.27,7.27,0,0,1-6,2.83C96.56,57.39,93.47,55.62,93.47,52.22Zm12.22-1.29V49.39a16.91,16.91,0,0,0-4.86-.71C97.75,48.68,96,50,96,52v.07c0,2.09,1.93,3.31,4.18,3.31C103.21,55.4,105.69,53.57,105.69,50.93Z"/><path class="cls-3" d="M120.67,55.27a6.87,6.87,0,0,0,5.24-2.35l1.54,1.39a8.58,8.58,0,0,1-6.85,3.12c-4.56,0-8.29-3.51-8.29-8.69,0-4.82,3.38-8.67,8-8.67,4.92,0,7.75,3.92,7.75,8.8,0,.23,0,.49,0,.87H114.82A5.8,5.8,0,0,0,120.67,55.27Zm4.85-7.52c-.29-3-2-5.6-5.3-5.6-2.86,0-5,2.38-5.4,5.6Z"/><path class="cls-3" d="M132.37,40.42h2.48v2.8a6.07,6.07,0,0,1,5.37-3.15,5.63,5.63,0,0,1,5.33,3.31,6.61,6.61,0,0,1,5.85-3.31c3.83,0,6.18,2.57,6.18,6.68V57H155.1V47.33c0-3.21-1.61-5-4.31-5-2.5,0-4.59,1.86-4.59,5.14V57h-2.45V47.27c0-3.12-1.64-5-4.27-5s-4.63,2.18-4.63,5.24V57h-2.48Z"/><path class="cls-3" d="M161.92,48.81v-.07a8.67,8.67,0,0,1,17.33-.06v.06a8.64,8.64,0,0,1-8.72,8.69A8.52,8.52,0,0,1,161.92,48.81Zm14.79,0v-.07a6.29,6.29,0,0,0-6.18-6.49,6.13,6.13,0,0,0-6.07,6.43v.06a6.24,6.24,0,0,0,6.14,6.47A6.14,6.14,0,0,0,176.71,48.81Z"/><path class="cls-3" d="M183.72,40.42h2.47v2.89a6.3,6.3,0,0,1,5.69-3.24c4,0,6.37,2.7,6.37,6.65V57h-2.48V47.33c0-3.09-1.67-5-4.59-5a4.88,4.88,0,0,0-5,5.2V57h-2.47Z"/><path class="cls-4" d="M32.8,20.8v5.5a1,1,0,0,0,.09.42,13.06,13.06,0,0,1,1,5.11v.09c0,6.93-5.06,12.3-13,12.3H13.61V19.44H21a15,15,0,0,1,4.52.68.21.21,0,0,0,.27-.19v-3a.21.21,0,0,0-.17-.21A19.05,19.05,0,0,0,21,16.18H10.08V47.49H21c9.84,0,16.64-6.85,16.64-15.66v-.09a15.08,15.08,0,0,0-4.59-11A.12.12,0,0,0,32.8,20.8Z"/><path class="cls-5" d="M38.43,16.18H27.56v24a.29.29,0,0,0,.46.23,18,18,0,0,0,2.82-2.83,1.14,1.14,0,0,0,.26-.75V19.44h7.34c7.92,0,13,5.46,13,12.39v.09c0,6.93-5,12.3-13,12.3H34.29a.88.88,0,0,0-.64.28,11.22,11.22,0,0,1-4.1,2.71.15.15,0,0,0,.06.28h8.82c9.84,0,16.64-6.85,16.64-15.66v-.09C55.07,22.93,48.27,16.18,38.43,16.18Z"/><path class="cls-2" d="M15.72,20.65a.12.12,0,0,0-.2.08v5.51a1.06,1.06,0,0,0,.09.42,13,13,0,0,1,1,5.11v.09a12.68,12.68,0,0,1-1.21,5.47h0v5.79a15.23,15.23,0,0,0,4.87-11.35v-.09A15.06,15.06,0,0,0,15.72,20.65Z"/><path class="cls-2" d="M0,44.16v3.26H3.67a19.69,19.69,0,0,0,4.69-.56V43.43a15.17,15.17,0,0,1-4.69.73Z"/><path class="cls-2" d="M8.29,16.66a19.62,19.62,0,0,0-4.62-.55H0v3.27H3.67a14.77,14.77,0,0,1,4.52.68.21.21,0,0,0,.27-.2v-3A.22.22,0,0,0,8.29,16.66Z"/><path class="cls-6" d="M62.34,43a14.57,14.57,0,0,1-6,1.21H52.24a.88.88,0,0,0-.64.28,11.22,11.22,0,0,1-4.1,2.71.15.15,0,0,0,.06.28h8.82a19,19,0,0,0,6-.93Z"/><path class="cls-6" d="M45.51,23.54V40.17a.28.28,0,0,0,.45.24,17.07,17.07,0,0,0,2.82-2.82,1.21,1.21,0,0,0,.27-.77V27h0a14,14,0,0,0-3.54-3.46Z"/><path class="cls-6" d="M56.38,16.18H47.16a.09.09,0,0,0,0,.18,11.94,11.94,0,0,1,4.41,2.86.75.75,0,0,0,.53.22h4.32a14.36,14.36,0,0,1,5.95,1.23h0V17.11h0A18.88,18.88,0,0,0,56.38,16.18Z"/></g></g></svg>