<svg xmlns="http://www.w3.org/2000/svg" viewBox="0 0 365.85 59.71"><defs><style>.cls-1{fill:#fff;}.cls-2{fill:#98989a;}</style></defs><title>Asset 1</title><g id="Layer_2" data-name="Layer 2"><g id="Layer_1-2" data-name="Layer 1"><path class="cls-1" d="M54.26,34c-2,3-4.12,5.11-8.09,5.54-5.32.56-9.55-3.49-10.16-9.2v-.11c-.59-5.54,2.68-10.45,8-11,3.64-.39,6.33,1.08,8.79,3.57l7.28-7c-3.87-4.31-9.21-7-17-6.21a20.85,20.85,0,0,0-9.83,3.62V45.78a19.8,19.8,0,0,0,13.61,3.45c8.42-.9,12.87-5.06,15.93-10.38Z"/><path class="cls-1" d="M64.34,35.07V35c0-8.42,6-15.08,14.55-15.08,10,0,14.54,7.3,14.54,15.77,0,.64,0,1.39-.05,2.08H74.09a6,6,0,0,0,6.24,4.74c2.39,0,4.31-.9,6.39-2.93l5.6,4.64A15.14,15.14,0,0,1,79.79,50C70.74,50,64.34,44,64.34,35.07ZM84,32.56c-.37-3.19-2.24-5.22-5-5.22s-4.47,2.08-5,5.22Z"/><path class="cls-1" d="M97.75,20.52h10.12v5.81c1.66-3.94,4.32-6.5,9.12-6.29V30.7h-.86c-5.27,0-8.26,3-8.26,9.7v9H97.75Z"/><path class="cls-1" d="M118.85,35.07V35c0-8.42,6-15.08,14.55-15.08,10,0,14.54,7.3,14.54,15.77,0,.64,0,1.39-.05,2.08H128.6a6,6,0,0,0,6.24,4.74c2.39,0,4.31-.9,6.39-2.93l5.59,4.64A15.1,15.1,0,0,1,134.3,50C125.25,50,118.85,44,118.85,35.07Zm19.61-2.51c-.37-3.19-2.24-5.22-5-5.22s-4.47,2.08-5,5.22Z"/><path class="cls-1" d="M162.38,45.83v3.52H152.26V10.45h10.12V24.36c2-2.4,4.43-4.48,8.74-4.48,6.87,0,12.79,5.7,12.79,14.92v.11C183.91,44.28,178,50,171.17,50A10.86,10.86,0,0,1,162.38,45.83ZM174,35v-.11c0-3.78-2.62-6.5-5.92-6.5s-5.86,2.72-5.86,6.5V35c0,3.84,2.61,6.55,5.86,6.55S174,38.85,174,35Z"/><path class="cls-1" d="M188.28,20.52H198.4v5.81c1.65-3.94,4.32-6.5,9.11-6.29V30.7h-.85c-5.27,0-8.26,3-8.26,9.7v9H188.28Z"/><path class="cls-1" d="M208.31,41.09V41c0-6,4.53-9.06,11.3-9.06A22.37,22.37,0,0,1,226.54,33v-.48c0-3-1.87-4.69-5.76-4.69a20.35,20.35,0,0,0-7.94,1.6l-2.08-7.14a29.05,29.05,0,0,1,11.67-2.24c5.17,0,8.69,1.23,11,3.52,2.18,2.13,3.09,5.12,3.09,9.17V49.35h-10v-3A10.86,10.86,0,0,1,218,50C212.52,50,208.31,46.84,208.31,41.09Zm18.33-2.19V37.57a10.52,10.52,0,0,0-3.94-.74c-2.93,0-4.64,1.43-4.64,3.57v.1c0,2,1.5,3.15,3.57,3.15C224.56,43.65,226.64,41.78,226.64,38.9Z"/><path class="cls-1" d="M241.88,10.45H252v38.9H241.88Z"/><path class="cls-2" d="M259.31,43.62,262,40.4c4.05,3.67,7.94,5.5,13.32,5.5,5.22,0,8.66-2.77,8.66-6.61v-.11c0-3.61-1.94-5.66-10.1-7.38C265,29.86,260.86,27,260.86,20.58v-.11c0-6.11,5.39-10.6,12.77-10.6a20.3,20.3,0,0,1,13.66,4.77L284.74,18a17.09,17.09,0,0,0-11.22-4.22c-5,0-8.27,2.78-8.27,6.27v.11c0,3.67,2,5.72,10.55,7.56s12.66,5,12.66,11v.11c0,6.66-5.56,11-13.27,11A22.7,22.7,0,0,1,259.31,43.62Z"/><path class="cls-2" d="M309.33,46.23a11.89,11.89,0,0,0,9.05-4L321,44.57A14.79,14.79,0,0,1,309.22,50c-7.89,0-14.33-6.05-14.33-15,0-8.33,5.83-15,13.77-15,8.5,0,13.38,6.78,13.38,15.22,0,.38,0,.83-.05,1.49H299.22C299.83,42.74,304.28,46.23,309.33,46.23Zm8.38-13c-.5-5.22-3.5-9.66-9.16-9.66-4.94,0-8.72,4.11-9.33,9.66Z"/><path class="cls-2" d="M327.76,35.07V35A15,15,0,0,1,354,25.08l-2.83,3c-2.28-2.39-4.84-4.33-8.72-4.33-5.83,0-10.27,4.94-10.27,11.1V35c0,6.22,4.55,11.16,10.55,11.16,3.66,0,6.49-1.83,8.77-4.27l2.72,2.55C351.3,47.62,347.86,50,342.47,50A14.73,14.73,0,0,1,327.76,35.07Z"/><path class="cls-2" d="M360.74,43.46h5.11v5.83h-5.11Z"/><path class="cls-1" d="M17.74,43.41l7.74-3.68,3.58-5.18h0L28.31,34l.41.81a.88.88,0,0,0,.34-.29L28.31,34l.41.81L28.31,34v.92a.88.88,0,0,0,.41-.1L28.31,34v0l-.62.67a.91.91,0,0,0,.62.24V34l-.62.67.62-.67H27.4a.92.92,0,0,0,.29.67l.62-.67H27.4v7h1.05l-1-.4-.07.16,1,.4-.75-.75L25.5,42.63a1.27,1.27,0,0,0-.38.91,1.34,1.34,0,0,0,.23.74l2.22,3.13.86-.62-1,.32,0,.14,1-.32H27.42v3.2a1.08,1.08,0,0,1-.14.53l-2.88,5,.37.21v-.42a.44.44,0,0,0-.37.21l.37.21v-.42h-.13l-8.85,2.14.25,1V57.9l.26-.17a.34.34,0,0,0-.26-.14v.31l.26-.17L13.86,54l0,0a1.92,1.92,0,0,0-.77-.67h0L6.54,50.3l-.9,1.92,6.57,3.06h0l.11-.24-.22.15.11.09.11-.24-.22.15,2.41,3.7a1.83,1.83,0,0,0,1.52.82h.13L25,57.56l-.25-1v1.05a1.68,1.68,0,0,0,1.47-.85l2.87-5a3.11,3.11,0,0,0,.42-1.58V46.76l-.09-.29-.05-.15-2.31-3.26h0l-.68.48h.83a.91.91,0,0,0-.15-.48l-.68.48h0l.58.58a.83.83,0,0,0,.25-.58h-.83l.58.58,2.3-2.29.14-.36.08-.19V34a1.19,1.19,0,0,0-1.2-1.2,1.11,1.11,0,0,0-.55.13,1.15,1.15,0,0,0-.44.38h0l-3.26,4.72L16.83,41.5l.91,1.91Z"/><path class="cls-1" d="M17.93,19.5h6.48a1.66,1.66,0,0,0,1.47-.91L29,12.34,28.27,12l.43.73a.89.89,0,0,0,.32-.35L28.27,12l.43.73L28.26,12v.86a.94.94,0,0,0,.44-.12L28.26,12v0l-.56.62a.88.88,0,0,0,.56.22V12l-.56.62.57-.63h-.85a.86.86,0,0,0,.28.63l.57-.63h-.85V25.9h0l.86.62-.8-.69-6.75,7.87,1.61,1.38,6.77-7.91,0,0a2,2,0,0,0,.39-1.22V12a1.26,1.26,0,0,0-.41-.94,1.29,1.29,0,0,0-.86-.33,1.24,1.24,0,0,0-1.13.7L24,17.63l.42.21v-.46a.47.47,0,0,0-.42.26l.42.2v-.46H17.93V19.5Z"/><path class="cls-1" d="M29.53,7.78V4.94a1.84,1.84,0,0,0-1-1.65L22.11.19h0a1.74,1.74,0,0,0-.8-.19,1.86,1.86,0,0,0-1,.27h0l-8.3,5.05a1.85,1.85,0,0,0-.88,1.57,2.83,2.83,0,0,0,0,.29l0,.09,2.44,7.2,1-.35-1,.17a1.46,1.46,0,0,0,.51.91,1.49,1.49,0,0,0,1,.34,1.41,1.41,0,0,0,.63-.14l.07,0,7.39-4.83L22,8.77l-7.33,4.79.58.88-.44-1,.26.58v-.64a.58.58,0,0,0-.26.06l.26.58v0l.41-.49a.66.66,0,0,0-.41-.15v.64l.41-.49-.41.49.63-.1a.64.64,0,0,0-.22-.39l-.41.49.63-.1v-.09l-2.45-7.2-1,.34,1-.16-.27,0h.28v0l-.27,0h0l.14.24a.27.27,0,0,0,.14-.24H13l.14.24,8.31-5h0l-.15-.25v.29l.15,0-.15-.25v0l-.12.25.12,0V1.84l-.12.25.15.08,6.23,3,.13-.25h-.28a.27.27,0,0,0,.15.25l.13-.25h-.28V7.78Z"/><path class="cls-1" d="M11.83,28.29,7.09,19.2l-.94.49,1-.41-.32.13h.35l0-.13-.32.13h0l.32.13,0-.13H6.8l.32.13L10.26,12h0l-.88-.36.51.8a1,1,0,0,0,.37-.44l-.88-.36.51.8-.51-.8v1a1,1,0,0,0,.51-.15l-.51-.8v0l-.58.74a.93.93,0,0,0,.58.2v-.94l-.58.74.58-.75-.93.17a1,1,0,0,0,.35.58l.58-.75-.93.17,0,.1,3.94,10.34,2-.76L10.49,11.23l-1,.37,1.05-.18a1.18,1.18,0,0,0-.44-.72,1.17,1.17,0,0,0-.72-.25,1.23,1.23,0,0,0-.63.18,1.15,1.15,0,0,0-.45.55h0L5.17,18.73a1.8,1.8,0,0,0-.14.68,1.85,1.85,0,0,0,.14.69l0,0L10,29.27l1.88-1Z"/><circle class="cls-1" cx="11.08" cy="28.62" r="2.23"/><circle class="cls-1" cx="7.71" cy="34.38" r="2.23"/><circle class="cls-1" cx="2.35" cy="41.13" r="2.23"/><circle class="cls-1" cx="21.35" cy="34.81" r="2.23"/><circle class="cls-1" cx="22.49" cy="22.99" r="2.23"/><circle class="cls-1" cx="15.64" cy="32.15" r="2.23"/><path class="cls-1" d="M20.39,18.3a2.23,2.23,0,1,1-2.23-2.23A2.23,2.23,0,0,1,20.39,18.3Z"/><path class="cls-1" d="M15.64,21.85a2.23,2.23,0,1,1-2.23-2.23A2.23,2.23,0,0,1,15.64,21.85Z"/><path class="cls-1" d="M24.57,9.66a2.23,2.23,0,1,1-2.23-2.23A2.22,2.22,0,0,1,24.57,9.66Z"/><path class="cls-1" d="M30.7,7.43A2.23,2.23,0,1,1,28.48,5.2,2.22,2.22,0,0,1,30.7,7.43Z"/><path class="cls-1" d="M19.51,42.45a2.23,2.23,0,1,1-2.23-2.23A2.23,2.23,0,0,1,19.51,42.45Z"/><path class="cls-1" d="M16.27,37A2.23,2.23,0,1,1,14,34.81,2.22,2.22,0,0,1,16.27,37Z"/><path class="cls-1" d="M24.53,47a2.23,2.23,0,1,1-2.23-2.22A2.23,2.23,0,0,1,24.53,47Z"/><path class="cls-1" d="M8.82,51.26A2.23,2.23,0,1,1,6.59,49,2.23,2.23,0,0,1,8.82,51.26Z"/><path class="cls-1" d="M12.84,37l-3.24,6,.53.29-.3-.52a.63.63,0,0,0-.23.23l.53.29-.3-.52.3.51v-.59a.52.52,0,0,0-.3.08l.3.51v0l.45-.39a.58.58,0,0,0-.45-.21v.6l.45-.39L2,32.63H2l-.36.3h.47a.48.48,0,0,0-.11-.3l-.36.3h0l.44.16,0-.16H1.65l.44.16-1-.36,1,.39,3.38-8.37h0l-.86-.33.5.77a.92.92,0,0,0,.36-.44l-.86-.33.5.77-.5-.77v.92a.86.86,0,0,0,.5-.15l-.5-.77v0l-.52.76a1,1,0,0,0,.52.16v-.92l-.52.76.52-.76-.87.29a.9.9,0,0,0,.35.47l.52-.76-.87.29,1-.33-1,.3,3,10,2-.6-3-10h0a1.16,1.16,0,0,0-1.14-.83A1.2,1.2,0,0,0,3.49,24l1,.38L3.5,24,.11,32.34v0A1.65,1.65,0,0,0,.39,34h0L9,44.2a1.55,1.55,0,0,0,1.17.55,1.56,1.56,0,0,0,1.33-.8l3.24-6-1.86-1Z"/><path class="cls-1" d="M21.24,47.07,21.7,52l1.05-.1-.95-.46.32.15-.1-.34a.38.38,0,0,0-.22.19l.32.15-.1-.34h0l-4.3,1.15h0l.16.62v-.65l-.16,0,.16.62v0l.61-.23a.65.65,0,0,0-.61-.42V53l.61-.23-1.09-2.89a2.16,2.16,0,0,0-1.17-1.22l0,0-11-3.27L3.34,40.74l-2,.77,2.21,5.63,12,3.55.3-1-.41,1h0l1.08,2.89a1.49,1.49,0,0,0,1.38,1,1.28,1.28,0,0,0,.38,0h0l4.3-1.14h0a1.79,1.79,0,0,0,1.14-.94l.12-.27-.48-5.22-2.11.19Z"/><polyline class="cls-1" points="22.21 21.61 14.62 31.51 16.3 32.8 23.89 22.91"/></g></g></svg>