<svg xmlns="http://www.w3.org/2000/svg" viewBox="0 0 87.88 87.88"><defs><style>.cls-1{fill:#fff;}.cls-2{fill:#24272a;}.cls-3{fill:#98989a;}</style></defs><title>Asset 2</title><g id="Layer_2" data-name="Layer 2"><g id="Layer_1-2" data-name="Layer 1"><rect class="cls-1" width="87.88" height="87.88" rx="12.02"/><path class="cls-2" d="M29,58.16l8.65-4.1,4-5.8h0l-.84-.58.47.91a.91.91,0,0,0,.37-.33l-.84-.58.47.91-.47-.91v1a1,1,0,0,0,.47-.11l-.47-.91v0l-.69.75a1,1,0,0,0,.69.26v-1l-.69.75.7-.76h-1a1.11,1.11,0,0,0,.33.76l.7-.76h-1v7.87H41l-1.09-.45-.07.18,1.09.45-.84-.84-2.39,2.4a1.42,1.42,0,0,0-.42,1,1.5,1.5,0,0,0,.26.83L40,62.63l1-.69-1.13.36,0,.15L41,62.09H39.85v3.58a1.28,1.28,0,0,1-.16.6l-3.21,5.61.41.23v-.47a.48.48,0,0,0-.41.24l.41.23v-.47h-.14L26.86,74l.28,1.15v-.84l.28-.19a.35.35,0,0,0-.28-.15v.34l.28-.19L24.7,70l0,0a2.08,2.08,0,0,0-.86-.75h0l-7.34-3.41-1,2.14,7.34,3.42h0l.13-.27-.25.16.12.11.13-.27-.25.16,2.7,4.14a2,2,0,0,0,1.7.91h.14L37.17,74l-.28-1.15V74a1.88,1.88,0,0,0,1.64-1l3.21-5.61a3.55,3.55,0,0,0,.47-1.77V61.91l-.1-.33-.06-.17-2.58-3.64h0l-.76.54h.92a1,1,0,0,0-.16-.54l-.76.54h0l.65.65a.92.92,0,0,0,.27-.65h-.92l.65.65,2.56-2.56.17-.4.09-.22v-8.1a1.38,1.38,0,0,0-.44-1,1.37,1.37,0,0,0-1.52-.21,1.38,1.38,0,0,0-.49.44h0L36.1,52.19,28,56l1,2.13Z"/><path class="cls-2" d="M29.25,31.45h7.23a1.83,1.83,0,0,0,1.65-1l3.51-7L40.79,23l.48.81a.92.92,0,0,0,.37-.39L40.79,23l.48.81L40.79,23V24a.94.94,0,0,0,.48-.13L40.79,23v0l-.63.69a.91.91,0,0,0,.63.24V23l-.63.69.64-.7h-.95a1,1,0,0,0,.31.7l.64-.7h-.95V38.6h0l1,.69-.9-.77-7.53,8.8,1.8,1.54L41.74,40l0,0a2.33,2.33,0,0,0,.44-1.37V23a1.41,1.41,0,0,0-1.42-1.42,1.38,1.38,0,0,0-.72.2,1.4,1.4,0,0,0-.55.58l-3.5,7,.46.23v-.52a.52.52,0,0,0-.46.29l.46.23v-.52H29.25v2.37Z"/><path class="cls-2" d="M42.21,18.36V15.19a2.07,2.07,0,0,0-1.15-1.85L33.92,9.88h0a2,2,0,0,0-.9-.21A2.06,2.06,0,0,0,32,10h0l-9.27,5.65a2,2,0,0,0-1,1.75,1.82,1.82,0,0,0,0,.32v.1l2.74,8,1.12-.38-1.17.18a1.62,1.62,0,0,0,.58,1,1.65,1.65,0,0,0,1.05.38,1.69,1.69,0,0,0,.7-.15l.08,0,8.26-5.39-1.3-2-8.18,5.34.64,1-.49-1.07.29.64v-.7a.58.58,0,0,0-.29.06l.29.64v0l.46-.54a.68.68,0,0,0-.46-.16v.7l.46-.54-.46.54.7-.11a.69.69,0,0,0-.24-.43l-.46.54.7-.11v-.1l-2.73-8-1.12.38,1.17-.18-.31.05h.31v-.05l-.31.05h0l.16.27a.33.33,0,0,0,.15-.27h-.31l.16.27L33.19,12h0L33,11.72V12l.17,0L33,11.72v0l-.14.28L33,12v-.31l-.14.28.18.09,7,3.38.14-.28h-.31a.3.3,0,0,0,.17.28l.14-.28h-.31v3.17Z"/><path class="cls-2" d="M22.43,41.28l-5.3-10.16-1.05.54,1.09-.46-.35.15h.38l0-.15-.35.15h0l.35.15,0-.15h-.38l.35.15,3.51-8.44h0l-1-.41.56.89a1,1,0,0,0,.41-.48l-1-.41.56.89-.56-.89v1.06a1,1,0,0,0,.56-.17l-.56-.89v0l-.65.83a1.06,1.06,0,0,0,.65.22V22.66l-.65.83.65-.84-1,.18a1.07,1.07,0,0,0,.39.66l.65-.84-1,.18,0,.12,4.4,11.55,2.21-.84L20.94,22.21l-1.11.42,1.17-.2a1.32,1.32,0,0,0-.49-.81,1.28,1.28,0,0,0-.8-.28,1.3,1.3,0,0,0-.7.21,1.22,1.22,0,0,0-.51.61h0L15,30.59a2,2,0,0,0,0,1.53l0,.05,5.32,10.2,2.1-1.09Z"/><circle class="cls-2" cx="21.6" cy="41.64" r="2.49"/><circle class="cls-2" cx="17.83" cy="48.08" r="2.49"/><circle class="cls-2" cx="11.84" cy="55.61" r="2.49"/><circle class="cls-2" cx="33.06" cy="48.55" r="2.49"/><circle class="cls-2" cx="34.34" cy="35.35" r="2.49"/><circle class="cls-2" cx="26.69" cy="45.59" r="2.49"/><path class="cls-2" d="M32,30.11a2.49,2.49,0,1,1-2.49-2.48A2.48,2.48,0,0,1,32,30.11Z"/><path class="cls-2" d="M26.69,34.08a2.49,2.49,0,1,1-2.49-2.49A2.5,2.5,0,0,1,26.69,34.08Z"/><path class="cls-2" d="M36.67,20.46A2.49,2.49,0,1,1,34.18,18,2.49,2.49,0,0,1,36.67,20.46Z"/><path class="cls-2" d="M43.52,18A2.49,2.49,0,1,1,41,15.48,2.5,2.5,0,0,1,43.52,18Z"/><path class="cls-2" d="M31,57.09a2.49,2.49,0,1,1-2.49-2.49A2.48,2.48,0,0,1,31,57.09Z"/><path class="cls-2" d="M27.39,51a2.49,2.49,0,1,1-2.49-2.49A2.48,2.48,0,0,1,27.39,51Z"/><path class="cls-2" d="M36.62,62.14a2.49,2.49,0,1,1-2.49-2.48A2.49,2.49,0,0,1,36.62,62.14Z"/><path class="cls-2" d="M19.07,66.94a2.49,2.49,0,1,1-2.49-2.49A2.49,2.49,0,0,1,19.07,66.94Z"/><path class="cls-2" d="M23.56,51l-3.62,6.67.59.32-.33-.58a.65.65,0,0,0-.26.26l.59.32-.33-.58.33.58v-.67a.63.63,0,0,0-.33.09l.33.58v0l.51-.43a.7.7,0,0,0-.51-.24V58l.51-.43L11.46,46.12h0l-.4.33h.52a.5.5,0,0,0-.12-.33l-.4.33h0l.49.18,0-.18h-.52l.49.18-1.11-.41,1.1.44,3.78-9.35h0l-1-.37.56.86a1.13,1.13,0,0,0,.4-.49l-1-.37.56.86-.56-.86v1a1,1,0,0,0,.56-.17l-.56-.86v0l-.58.85a1,1,0,0,0,.58.18v-1l-.58.85.58-.85-1,.32a1,1,0,0,0,.4.53l.58-.85-1,.32,1.13-.37-1.14.34,3.31,11.18L19,47.74,15.65,36.55v0a1.29,1.29,0,0,0-.52-.69,1.31,1.31,0,0,0-.75-.24,1.35,1.35,0,0,0-1.25.86l1.1.43-1.09-.45L9.34,45.8v0a1.76,1.76,0,0,0-.11.64,1.82,1.82,0,0,0,.43,1.18h0l9.58,11.4a1.71,1.71,0,0,0,1.3.61,1.69,1.69,0,0,0,.84-.23,1.72,1.72,0,0,0,.65-.66l3.62-6.67L23.56,51Z"/><path class="cls-2" d="M33,62.25l.51,5.52,1.17-.11-1.06-.51.35.17-.1-.38a.37.37,0,0,0-.25.21l.35.17-.1-.38h0L29,68.21h0l.18.7v-.72l-.18,0,.18.7v0l.68-.25a.72.72,0,0,0-.68-.47v.72l.68-.25-1.21-3.23a2.4,2.4,0,0,0-1.31-1.36l-.06,0L15,60.39l-2-5.21-2.2.87,2.46,6.28,13.36,4,.34-1.13-.46,1.09h0l1.22,3.23a1.67,1.67,0,0,0,2,1h0l4.8-1.28h0a1.94,1.94,0,0,0,1.27-1l.14-.29L35.3,62,33,62.25Z"/><polyline class="cls-2" points="34.03 33.82 25.55 44.87 27.42 46.31 35.91 35.26"/><path class="cls-3" d="M59.46,58.16l-8.65-4.1-4-5.8h0l.84-.58-.46.91a.93.93,0,0,1-.38-.33l.84-.58-.46.91.47-.91v1a1,1,0,0,1-.47-.11l.47-.91v0l.68.75a1,1,0,0,1-.68.26v-1l.68.75-.69-.76h1a1,1,0,0,1-.33.76l-.69-.76h1v7.87H47.49l1.1-.45.07.18-1.09.45.83-.84,2.4,2.4a1.46,1.46,0,0,1,.42,1,1.44,1.44,0,0,1-.27.83l-2.47,3.49-1-.69,1.12.36,0,.15-1.13-.36h1.18v3.58a1.17,1.17,0,0,0,.16.6L52,71.88l-.41.23v-.47a.5.5,0,0,1,.41.24l-.41.23v-.47h.14L61.64,74l-.28,1.15v-.84l-.29-.19a.38.38,0,0,1,.29-.15v.34l-.29-.19L63.8,70l0,0a2.17,2.17,0,0,1,.87-.75h0L72,65.87,73,68l-7.33,3.42h0l-.12-.27.25.16-.13.11-.12-.27.25.16-2.71,4.14a2,2,0,0,1-1.69.91h-.14L51.33,74l.28-1.15V74a1.91,1.91,0,0,1-1.65-1l-3.21-5.61a3.65,3.65,0,0,1-.46-1.77V61.91l.1-.33,0-.17L49,57.77h0l.76.54h-.93a1,1,0,0,1,.17-.54l.76.54h0l-.66.65a1,1,0,0,1-.27-.65h.93l-.66.65L46.56,56.4,46.4,56l-.09-.22v-8.1a1.34,1.34,0,0,1,.43-1,1.37,1.37,0,0,1,.92-.35,1.32,1.32,0,0,1,.6.14,1.33,1.33,0,0,1,.5.44h0l3.64,5.27L60.48,56l-1,2.13Z"/><path class="cls-3" d="M59.25,31.45H52a1.85,1.85,0,0,1-1.65-1l-3.5-7L47.7,23l-.48.81a.9.9,0,0,1-.36-.39L47.7,23l-.48.81.49-.82V24a1,1,0,0,1-.49-.13l.49-.82v0l.63.69a.91.91,0,0,1-.63.24V23l.63.69L47.7,23h.95a1,1,0,0,1-.31.7L47.7,23h.95V38.6h0l-1,.69.9-.77,7.53,8.8-1.8,1.54L46.76,40l0,0a2.33,2.33,0,0,1-.44-1.37V23a1.41,1.41,0,0,1,2.14-1.22,1.32,1.32,0,0,1,.54.58l3.51,7L52,29.6v-.52a.52.52,0,0,1,.47.29L52,29.6v-.52h7.24v2.37Z"/><path class="cls-3" d="M46.29,18.36V15.19a2.05,2.05,0,0,1,1.15-1.85l7.14-3.46h0a2,2,0,0,1,.89-.21,2,2,0,0,1,1.07.3h0l9.28,5.65a2,2,0,0,1,1,1.75c0,.1,0,.21,0,.32l0,.1-2.73,8-1.12-.38,1.17.18a1.62,1.62,0,0,1-.58,1,1.66,1.66,0,0,1-1.06.38,1.68,1.68,0,0,1-.69-.15l-.08,0-8.26-5.39,1.29-2,8.19,5.34-.65,1,.5-1.07-.3.64v-.7a.62.62,0,0,1,.3.06l-.3.64v0L62,24.83a.67.67,0,0,1,.45-.16v.7L62,24.83l.45.54-.7-.11a.7.7,0,0,1,.25-.43l.45.54-.7-.11,0-.1,2.73-8,1.12.38-1.17-.18.31.05h-.31v-.05l.31.05h0l-.16.27a.31.31,0,0,1-.15-.27h.31l-.16.27L55.31,12h0l.16-.27V12l-.16,0,.16-.27v0l.14.28-.14,0v-.31l.14.28-.18.09-7,3.38-.13-.28h.31a.32.32,0,0,1-.17.28l-.14-.28h.31v3.17Z"/><path class="cls-3" d="M66.07,41.28l5.29-10.16,1,.54-1.09-.46.36.15h-.39l0-.15.36.15h0l-.36.15,0-.15h.39l-.36.15-3.51-8.44h0l1-.41-.57.89a1.06,1.06,0,0,1-.41-.48l1-.41-.57.89.57-.89v1.06a1,1,0,0,1-.57-.17l.57-.89v0l.64.83a1,1,0,0,1-.64.22V22.66l.64.83-.64-.84,1,.18a1.09,1.09,0,0,1-.4.66l-.64-.84,1,.18,0,.12L65.41,34.5l-2.22-.84,4.37-11.45,1.1.42-1.16-.2a1.36,1.36,0,0,1,.48-.81,1.31,1.31,0,0,1,2,.54h0l3.51,8.43a2,2,0,0,1,.15.76,1.87,1.87,0,0,1-.16.77l0,.05-5.31,10.2-2.1-1.09Z"/><circle class="cls-3" cx="66.9" cy="41.64" r="2.49"/><circle class="cls-3" cx="70.67" cy="48.08" r="2.49"/><circle class="cls-3" cx="76.65" cy="55.61" r="2.49"/><circle class="cls-3" cx="55.43" cy="48.55" r="2.49"/><circle class="cls-3" cx="54.16" cy="35.35" r="2.49"/><circle class="cls-3" cx="61.8" cy="45.59" r="2.49"/><path class="cls-3" d="M56.51,30.11A2.49,2.49,0,1,0,59,27.63,2.48,2.48,0,0,0,56.51,30.11Z"/><path class="cls-3" d="M61.81,34.08a2.49,2.49,0,1,0,2.49-2.49A2.5,2.5,0,0,0,61.81,34.08Z"/><path class="cls-3" d="M51.83,20.46A2.49,2.49,0,1,0,54.32,18,2.48,2.48,0,0,0,51.83,20.46Z"/><path class="cls-3" d="M45,18a2.49,2.49,0,1,0,2.49-2.49A2.49,2.49,0,0,0,45,18Z"/><path class="cls-3" d="M57.48,57.09A2.49,2.49,0,1,0,60,54.6,2.49,2.49,0,0,0,57.48,57.09Z"/><path class="cls-3" d="M61.1,51a2.49,2.49,0,1,0,2.49-2.49A2.49,2.49,0,0,0,61.1,51Z"/><path class="cls-3" d="M51.88,62.14a2.49,2.49,0,1,0,2.49-2.48A2.49,2.49,0,0,0,51.88,62.14Z"/><path class="cls-3" d="M69.43,66.94a2.49,2.49,0,1,0,2.48-2.49A2.49,2.49,0,0,0,69.43,66.94Z"/><path class="cls-3" d="M64.94,51l3.62,6.67L68,58l.33-.58a.72.72,0,0,1,.26.26L68,58l.33-.58L68,58v-.67a.68.68,0,0,1,.33.09L68,58v0l-.51-.43a.69.69,0,0,1,.51-.24V58l-.51-.43L77,46.12h0l.39.33h-.52a.51.51,0,0,1,.13-.33l.39.33h0l-.49.18,0-.18h.53l-.49.18,1.11-.41-1.1.44-3.79-9.35h0l1-.37-.56.86a1,1,0,0,1-.4-.49l1-.37-.56.86.56-.86v1a1,1,0,0,1-.56-.17l.56-.86v0l.58.85a1,1,0,0,1-.58.18v-1l.58.85-.58-.85,1,.32a1.11,1.11,0,0,1-.4.53l-.58-.85,1,.32L74,36.89l1.14.34L71.8,48.41l-2.26-.67,3.31-11.19v0a1.28,1.28,0,0,1,.51-.69,1.36,1.36,0,0,1,.76-.24,1.35,1.35,0,0,1,1.25.86l-1.11.43,1.1-.45,3.79,9.36v0a2,2,0,0,1,.11.64,1.82,1.82,0,0,1-.43,1.18h0l-9.58,11.4a1.72,1.72,0,0,1-1.3.61,1.75,1.75,0,0,1-.85-.23,1.69,1.69,0,0,1-.64-.66L62.86,52.1,64.94,51Z"/><path class="cls-3" d="M55.55,62.25,55,67.77l-1.18-.11,1.07-.51-.36.17.1-.38a.39.39,0,0,1,.26.21l-.36.17.1-.38h0l4.81,1.27h0l-.19.7v-.72l.19,0-.19.7v0l-.67-.25a.72.72,0,0,1,.67-.47v.72l-.67-.25,1.21-3.23a2.34,2.34,0,0,1,1.31-1.36l.06,0,12.31-3.65,2-5.21,2.21.87-2.47,6.28-13.36,4-.33-1.13.45,1.09h0l-1.22,3.23a1.65,1.65,0,0,1-1.54,1.06,1.51,1.51,0,0,1-.42,0h0l-4.8-1.28h0a1.94,1.94,0,0,1-1.27-1l-.15-.29L53.19,62l2.36.21Z"/><polyline class="cls-3" points="54.47 33.82 62.95 44.87 61.07 46.31 52.59 35.26"/></g></g></svg>